<svg width="257" height="72" viewBox="0 0 257 72" fill="none" xmlns="http://www.w3.org/2000/svg">
<g clip-path="url(#clip0)">
<path d="M64.3469 69.4561C69.1493 69.4561 73.0424 66.0009 73.0424 61.7388C73.0424 57.4767 69.1493 54.0216 64.3469 54.0216C59.5445 54.0216 55.6515 57.4767 55.6515 61.7388C55.6515 66.0009 59.5445 69.4561 64.3469 69.4561Z" fill="#fff"/>
<path d="M29.5647 69.4561C34.3671 69.4561 38.2602 66.0009 38.2602 61.7388C38.2602 57.4767 34.3671 54.0216 29.5647 54.0216C24.7623 54.0216 20.8692 57.4767 20.8692 61.7388C20.8692 66.0009 24.7623 69.4561 29.5647 69.4561Z" fill="#fff"/>
<path d="M79.564 11.3265C79.2337 10.9945 78.7586 10.8045 78.2597 10.8048H15.6519C14.6915 10.8047 13.9126 11.4955 13.9125 12.3479C13.9125 12.4516 13.9242 12.5552 13.9477 12.657L20.9041 43.526C21.0695 44.2447 21.782 44.7609 22.6084 44.7607C22.6849 44.7652 22.7615 44.7652 22.838 44.7607L75.0111 38.5869C75.7948 38.494 76.4093 37.9435 76.5067 37.2471L79.9848 12.5518C80.0514 12.1086 79.8978 11.6616 79.564 11.3265Z" fill="#FFC107"/>
<path d="M29.5647 38.587C28.7146 38.5867 27.9894 38.0409 27.85 37.2967L24.3719 18.7753C24.2429 17.9305 24.9099 17.153 25.8617 17.0386C26.7731 16.9289 27.6232 17.4682 27.8014 18.2691L31.2796 36.7906C31.4366 37.631 30.7968 38.4254 29.85 38.5656C29.7558 38.5799 29.6604 38.5871 29.5647 38.587Z" fill="#FAFAFA"/>
<path d="M38.2604 37.0435C37.3578 37.0467 36.6024 36.4368 36.5212 35.6389L34.782 18.661C34.692 17.8123 35.3943 17.0596 36.3506 16.9797C36.3554 16.9793 36.3599 16.979 36.3647 16.9785C37.3212 16.9017 38.1668 17.5278 38.2533 18.3768V18.3769L39.9925 35.3549C40.0789 36.2038 39.3736 36.9542 38.417 37.0311H38.4169L38.2604 37.0435Z" fill="#FAFAFA"/>
<path d="M46.9558 35.5C45.9953 35.5 45.2167 34.8089 45.2167 33.9565V18.522C45.2167 17.6696 45.9953 16.9785 46.9558 16.9785C47.9163 16.9785 48.695 17.6696 48.695 18.522V33.9566C48.695 34.8091 47.9163 35.5 46.9558 35.5Z" fill="#FAFAFA"/>
<path d="M55.6513 33.9566H55.4564C54.5014 33.8669 53.8091 33.107 53.9102 32.2592C53.9108 32.254 53.9115 32.2486 53.9121 32.2434L55.6513 18.3523C55.7641 17.5034 56.6235 16.8919 57.5817 16.9787C58.5363 17.0724 59.2247 17.8352 59.1192 18.6825V18.6827L57.38 32.5738C57.2874 33.3593 56.5415 33.9561 55.6513 33.9566Z" fill="#FAFAFA"/>
<path d="M64.3469 32.4131C63.3864 32.4129 62.6081 31.7216 62.6082 30.8692C62.6082 30.7435 62.6257 30.6182 62.6599 30.4962L66.1381 18.1486C66.3489 17.317 67.2795 16.7945 68.2165 16.9816C69.1535 17.1687 69.7423 17.9946 69.5315 18.8262C69.5256 18.8495 69.5191 18.8727 69.5119 18.8957L66.0337 31.2433C65.8407 31.9306 65.145 32.413 64.3469 32.4131Z" fill="#FAFAFA"/>
<path d="M71.3032 50.9346H31.1612C25.3638 50.9227 20.3752 47.294 19.224 42.2511L10.7477 4.63094H1.73916C0.778684 4.63094 0 3.93985 0 3.08743C0 2.23501 0.778684 1.54393 1.73916 1.54393H12.1738C13.0004 1.54379 13.7127 2.05993 13.8781 2.77865L22.6361 41.6429C23.457 45.2453 27.02 47.8385 31.1612 47.8476H71.3032C72.2637 47.8476 73.0424 48.5387 73.0424 49.3911C73.0424 50.2435 72.2637 50.9346 71.3032 50.9346Z" fill="#fff"/>
</g>
<path d="M109.136 23.496C108.848 23.368 108.608 23.304 108.416 23.304C108.064 23.304 107.584 23.512 106.976 23.928C106.368 24.312 105.712 24.808 105.008 25.416C104.336 25.992 103.632 26.648 102.896 27.384C102.16 28.088 101.488 28.76 100.88 29.4C100.272 30.04 99.744 30.6 99.296 31.08C98.848 31.56 98.56 31.864 98.432 31.992C98.08 32.376 97.664 32.856 97.184 33.432C96.704 33.976 96.24 34.52 95.792 35.064C95.376 35.576 95.008 36.024 94.688 36.408C94.4 36.792 94.256 37 94.256 37.032H94.304C94.368 37.032 94.528 37.016 94.784 36.984C95.072 36.952 95.408 36.936 95.792 36.936C96.304 36.936 96.864 37 97.472 37.128C98.112 37.224 98.72 37.448 99.296 37.8C99.904 38.152 100.432 38.664 100.88 39.336C101.36 40.008 101.696 40.92 101.888 42.072C102.048 43.064 102.208 44.2 102.368 45.48C102.528 46.728 102.704 47.912 102.896 49.032C103.088 50.12 103.312 51.048 103.568 51.816C103.856 52.584 104.192 52.968 104.576 52.968C104.64 52.968 104.784 52.888 105.008 52.728C105.232 52.568 105.44 52.488 105.632 52.488C105.888 52.488 106.032 52.696 106.064 53.112C106.064 53.56 106.016 53.928 105.92 54.216C105.824 54.504 105.488 54.648 104.912 54.648C103.376 54.648 102.144 54.44 101.216 54.024C100.32 53.608 99.616 52.984 99.104 52.152C98.624 51.32 98.304 50.28 98.144 49.032C97.984 47.784 97.888 46.328 97.856 44.664C97.856 44.024 97.824 43.368 97.76 42.696C97.696 42.024 97.552 41.432 97.328 40.92C97.104 40.376 96.784 39.944 96.368 39.624C95.952 39.272 95.376 39.096 94.64 39.096C93.52 39.096 92.832 39.336 92.576 39.816C92.32 40.264 92.192 40.904 92.192 41.736C92.192 43.624 92.192 45.144 92.192 46.296C92.224 47.448 92.256 48.376 92.288 49.08C92.352 49.752 92.432 50.264 92.528 50.616C92.656 50.968 92.832 51.288 93.056 51.576L93.008 51.624C92.88 51.688 92.544 51.832 92 52.056C91.488 52.312 90.864 52.44 90.128 52.44C89.744 52.44 89.296 52.376 88.784 52.248C88.304 52.152 87.936 51.944 87.68 51.624V25.368C87.68 24.792 87.68 24.232 87.68 23.688C87.712 23.112 87.776 22.616 87.872 22.2C88 21.752 88.176 21.4 88.4 21.144C88.624 20.856 88.944 20.712 89.36 20.712C89.616 20.712 89.952 20.792 90.368 20.952C90.784 21.08 91.184 21.256 91.568 21.48C91.952 21.672 92.272 21.88 92.528 22.104C92.816 22.328 92.96 22.52 92.96 22.68C92.96 22.744 92.912 22.808 92.816 22.872C92.752 22.904 92.672 22.984 92.576 23.112C92.48 23.24 92.384 23.416 92.288 23.64C92.224 23.864 92.192 24.2 92.192 24.648V35.4C93.12 34.568 94.528 33.128 96.416 31.08C98.336 29 100.56 26.504 103.088 23.592C103.344 23.336 103.568 23.032 103.76 22.68C103.984 22.328 104.192 21.992 104.384 21.672C104.608 21.352 104.832 21.08 105.056 20.856C105.312 20.632 105.6 20.52 105.92 20.52C106.144 20.52 106.448 20.584 106.832 20.712C107.216 20.84 107.584 21.016 107.936 21.24C108.32 21.464 108.64 21.72 108.896 22.008C109.184 22.296 109.328 22.6 109.328 22.92C109.328 23.176 109.264 23.368 109.136 23.496ZM112.79 28.776C112.79 29 112.678 29.192 112.454 29.352C112.23 29.48 111.974 29.576 111.686 29.64C111.43 29.704 111.174 29.752 110.918 29.784C110.662 29.816 110.502 29.832 110.438 29.832C109.766 29.832 109.094 29.64 108.422 29.256C107.782 28.872 107.19 28.264 106.646 27.432C106.582 27.336 106.486 27.208 106.358 27.048C106.23 26.888 106.166 26.776 106.166 26.712C106.166 26.552 106.278 26.408 106.502 26.28C106.758 26.152 107.03 26.024 107.318 25.896C107.638 25.768 107.926 25.672 108.182 25.608C108.47 25.544 108.662 25.512 108.758 25.512C109.398 25.512 110.022 25.672 110.63 25.992C111.27 26.312 111.782 26.904 112.166 27.768C112.23 27.864 112.342 28.04 112.502 28.296C112.694 28.52 112.79 28.68 112.79 28.776ZM117.686 43.32C117.59 44.088 117.414 44.888 117.158 45.72C116.902 46.552 116.534 47.336 116.054 48.072C115.606 48.776 115.03 49.368 114.326 49.848C113.622 50.296 112.758 50.52 111.734 50.52C110.934 50.52 110.118 50.248 109.286 49.704C108.454 49.128 107.878 48.376 107.558 47.448C107.27 46.52 107.126 45.624 107.126 44.76C107.126 44.504 107.142 44.12 107.174 43.608C107.206 43.096 107.222 42.472 107.222 41.736V36.456C107.222 36.2 107.206 35.928 107.174 35.64C107.174 35.352 107.142 35.08 107.078 34.824C107.046 34.696 106.982 34.552 106.886 34.392C106.822 34.232 106.79 34.12 106.79 34.056C106.79 33.928 106.87 33.832 107.03 33.768C107.19 33.672 107.366 33.608 107.558 33.576C107.75 33.544 107.926 33.528 108.086 33.528C108.278 33.528 108.374 33.528 108.374 33.528C108.47 33.528 108.694 33.544 109.046 33.576C109.398 33.576 109.766 33.624 110.15 33.72C110.534 33.816 110.87 33.976 111.158 34.2C111.478 34.392 111.638 34.68 111.638 35.064C111.67 35.16 111.606 35.336 111.446 35.592C111.318 35.848 111.19 36.296 111.062 36.936C111.03 37.192 110.998 37.432 110.966 37.656C110.934 37.848 110.902 38.072 110.87 38.328C110.838 38.584 110.806 38.904 110.774 39.288C110.742 39.64 110.71 40.104 110.678 40.68V43.56C110.678 44.072 110.694 44.6 110.726 45.144C110.758 45.656 110.822 46.136 110.918 46.584C111.046 47 111.238 47.352 111.494 47.64C111.75 47.896 112.086 48.024 112.502 48.024C113.11 48.024 113.59 47.848 113.942 47.496C114.294 47.144 114.566 46.84 114.758 46.584C115.11 46.104 115.382 45.512 115.574 44.808C115.766 44.072 115.942 43.32 116.102 42.552L116.198 42.072C116.294 41.592 116.582 41.352 117.062 41.352C117.542 41.352 117.782 41.688 117.782 42.36V42.6L117.686 43.32ZM125.947 49.608C125.947 49.992 125.803 50.328 125.515 50.616C125.259 50.904 124.923 51.16 124.507 51.384C124.123 51.608 123.707 51.768 123.259 51.864C122.843 51.992 122.491 52.056 122.203 52.056C121.659 52.056 121.051 51.992 120.379 51.864C119.739 51.768 119.195 51.544 118.747 51.192C118.235 50.776 117.803 50.12 117.451 49.224C117.131 48.296 116.875 47.208 116.683 45.96C116.523 44.68 116.411 43.272 116.347 41.736C116.283 40.168 116.251 38.536 116.251 36.84C116.251 36.136 116.267 35.352 116.299 34.488C116.363 33.624 116.427 32.728 116.491 31.8C116.555 30.84 116.635 29.896 116.731 28.968C116.827 28.008 116.923 27.096 117.019 26.232C117.115 25.624 117.227 24.968 117.355 24.264C117.483 23.56 117.611 22.888 117.739 22.248C117.899 21.608 118.075 21.032 118.267 20.52C118.459 20.008 118.667 19.64 118.891 19.416C119.147 19.16 119.483 19 119.899 18.936C120.347 18.84 120.747 18.792 121.099 18.792C121.835 18.792 122.427 18.984 122.875 19.368C123.323 19.752 123.659 20.28 123.883 20.952C124.139 21.592 124.299 22.344 124.363 23.208C124.459 24.04 124.507 24.936 124.507 25.896C124.507 27.368 124.459 28.968 124.363 30.696C124.267 32.392 124.059 34.104 123.739 35.832C123.451 37.56 123.019 39.24 122.443 40.872C121.899 42.504 121.163 43.992 120.235 45.336C120.267 45.784 120.315 46.312 120.379 46.92C120.475 47.496 120.603 48.04 120.763 48.552C120.923 49.064 121.131 49.496 121.387 49.848C121.643 50.2 121.979 50.376 122.395 50.376C122.779 50.376 123.083 50.296 123.307 50.136C123.531 49.944 123.723 49.736 123.883 49.512C124.075 49.288 124.251 49.096 124.411 48.936C124.603 48.744 124.843 48.648 125.131 48.648C125.451 48.648 125.659 48.744 125.755 48.936C125.883 49.128 125.947 49.352 125.947 49.608ZM122.347 27.048C122.347 26.728 122.331 26.344 122.299 25.896C122.299 25.448 122.251 25.016 122.155 24.6C122.091 24.152 121.995 23.784 121.867 23.496C121.739 23.176 121.563 23.016 121.339 23.016C121.019 23.016 120.763 23.464 120.571 24.36C120.379 25.256 120.219 26.44 120.091 27.912C119.995 29.352 119.915 31 119.851 32.856C119.819 34.68 119.803 36.536 119.803 38.424C119.803 38.968 119.803 39.544 119.803 40.152C119.803 40.728 119.835 41.24 119.899 41.688C120.955 39.16 121.627 36.712 121.915 34.344C122.203 31.976 122.347 29.544 122.347 27.048ZM135.557 49.608C135.557 49.992 135.413 50.328 135.125 50.616C134.869 50.904 134.533 51.16 134.117 51.384C133.733 51.608 133.317 51.768 132.869 51.864C132.453 51.992 132.101 52.056 131.813 52.056C131.269 52.056 130.661 51.992 129.989 51.864C129.349 51.768 128.805 51.544 128.357 51.192C127.845 50.776 127.413 50.12 127.061 49.224C126.741 48.296 126.485 47.208 126.293 45.96C126.133 44.68 126.021 43.272 125.957 41.736C125.893 40.168 125.861 38.536 125.861 36.84C125.861 36.136 125.877 35.352 125.909 34.488C125.973 33.624 126.037 32.728 126.101 31.8C126.165 30.84 126.245 29.896 126.341 28.968C126.437 28.008 126.533 27.096 126.629 26.232C126.725 25.624 126.837 24.968 126.965 24.264C127.093 23.56 127.221 22.888 127.349 22.248C127.509 21.608 127.685 21.032 127.877 20.52C128.069 20.008 128.277 19.64 128.501 19.416C128.757 19.16 129.093 19 129.509 18.936C129.957 18.84 130.357 18.792 130.709 18.792C131.445 18.792 132.037 18.984 132.485 19.368C132.933 19.752 133.269 20.28 133.493 20.952C133.749 21.592 133.909 22.344 133.973 23.208C134.069 24.04 134.117 24.936 134.117 25.896C134.117 27.368 134.069 28.968 133.973 30.696C133.877 32.392 133.669 34.104 133.349 35.832C133.061 37.56 132.629 39.24 132.053 40.872C131.509 42.504 130.773 43.992 129.845 45.336C129.877 45.784 129.925 46.312 129.989 46.92C130.085 47.496 130.213 48.04 130.373 48.552C130.533 49.064 130.741 49.496 130.997 49.848C131.253 50.2 131.589 50.376 132.005 50.376C132.389 50.376 132.693 50.296 132.917 50.136C133.141 49.944 133.333 49.736 133.493 49.512C133.685 49.288 133.861 49.096 134.021 48.936C134.213 48.744 134.453 48.648 134.741 48.648C135.061 48.648 135.269 48.744 135.365 48.936C135.493 49.128 135.557 49.352 135.557 49.608ZM131.957 27.048C131.957 26.728 131.941 26.344 131.909 25.896C131.909 25.448 131.861 25.016 131.765 24.6C131.701 24.152 131.605 23.784 131.477 23.496C131.349 23.176 131.173 23.016 130.949 23.016C130.629 23.016 130.373 23.464 130.181 24.36C129.989 25.256 129.829 26.44 129.701 27.912C129.605 29.352 129.525 31 129.461 32.856C129.429 34.68 129.413 36.536 129.413 38.424C129.413 38.968 129.413 39.544 129.413 40.152C129.413 40.728 129.445 41.24 129.509 41.688C130.565 39.16 131.237 36.712 131.525 34.344C131.813 31.976 131.957 29.544 131.957 27.048ZM147.038 48.792C146.398 48.152 145.87 47.176 145.454 45.864C145.358 46.056 145.23 46.472 145.07 47.112C144.942 47.752 144.734 48.424 144.446 49.128C144.158 49.8 143.774 50.424 143.294 51C142.846 51.544 142.27 51.816 141.566 51.816C139.518 51.816 138.11 51.224 137.342 50.04C136.574 48.856 136.126 47.112 135.998 44.808V33.24C136.062 33.016 136.094 32.856 136.094 32.76C136.126 32.664 136.27 32.616 136.526 32.616C136.686 32.616 136.958 32.648 137.342 32.712C137.758 32.776 138.174 32.872 138.59 33C139.006 33.096 139.374 33.24 139.694 33.432C140.046 33.624 140.222 33.848 140.222 34.104V42.6C140.222 43.176 140.222 43.816 140.222 44.52C140.254 45.224 140.302 45.88 140.366 46.488C140.462 47.064 140.606 47.56 140.798 47.976C140.99 48.36 141.262 48.552 141.614 48.552C142.542 48.552 143.262 47.624 143.774 45.768C144.286 43.88 144.574 40.92 144.638 36.888C144.638 36.632 144.574 36.376 144.446 36.12C144.318 35.864 144.254 35.56 144.254 35.208C144.318 34.952 144.574 34.792 145.022 34.728C145.502 34.664 145.934 34.632 146.318 34.632C147.278 34.632 147.982 34.728 148.43 34.92C148.878 35.112 149.102 35.688 149.102 36.648C149.038 37.224 148.974 37.688 148.91 38.04C148.878 38.36 148.846 38.664 148.814 38.952C148.814 39.208 148.798 39.496 148.766 39.816C148.766 40.104 148.766 40.536 148.766 41.112C148.766 41.848 148.798 42.616 148.862 43.416C148.926 44.216 149.038 44.952 149.198 45.624C149.358 46.296 149.55 46.856 149.774 47.304C150.03 47.72 150.35 47.928 150.734 47.928C151.086 47.928 151.358 47.832 151.55 47.64C151.742 47.416 151.918 47.176 152.078 46.92C152.238 46.664 152.398 46.44 152.558 46.248C152.718 46.024 152.942 45.912 153.23 45.912C153.486 45.912 153.678 46.008 153.806 46.2C153.934 46.36 153.998 46.52 153.998 46.68C153.998 47.288 153.838 47.8 153.518 48.216C153.23 48.632 152.862 48.968 152.414 49.224C151.998 49.48 151.566 49.672 151.118 49.8C150.67 49.896 150.302 49.944 150.014 49.944C149.47 49.944 149.006 49.88 148.622 49.752C148.238 49.624 147.854 49.432 147.47 49.176L147.038 48.792ZM171.726 45.768C171.662 46.216 171.502 46.744 171.246 47.352C170.99 47.96 170.654 48.552 170.238 49.128C169.854 49.672 169.39 50.136 168.846 50.52C168.334 50.904 167.758 51.096 167.118 51.096C166.158 51.096 165.31 50.728 164.574 49.992C163.87 49.256 163.438 48.216 163.278 46.872C163.086 47.384 162.862 47.976 162.606 48.648C162.35 49.32 162.03 49.944 161.646 50.52C161.262 51.096 160.814 51.576 160.302 51.96C159.822 52.376 159.246 52.584 158.574 52.584C158.382 52.584 158.238 52.568 158.142 52.536C158.046 52.504 157.934 52.456 157.806 52.392C157.71 52.36 157.582 52.328 157.422 52.296C157.294 52.264 157.102 52.248 156.846 52.248C156.078 52.248 155.422 51.992 154.878 51.48C154.366 51 153.95 50.376 153.63 49.608C153.31 48.84 153.07 48.008 152.91 47.112C152.782 46.184 152.718 45.32 152.718 44.52C152.718 42.6 152.814 40.776 153.006 39.048C153.23 37.32 153.582 35.8 154.062 34.488C154.542 33.144 155.166 32.088 155.934 31.32C156.702 30.52 157.63 30.12 158.718 30.12C159.358 30.12 159.838 30.184 160.158 30.312C160.51 30.408 160.83 30.536 161.118 30.696C161.406 30.824 161.71 30.968 162.03 31.128C162.382 31.288 162.862 31.416 163.47 31.512C164.142 31.896 164.606 32.36 164.862 32.904C165.15 33.416 165.326 33.976 165.39 34.584C165.486 35.192 165.518 35.832 165.486 36.504C165.454 37.144 165.486 37.784 165.582 38.424C165.582 38.456 165.646 38.504 165.774 38.568C165.934 38.632 166.11 38.712 166.302 38.808C166.494 38.872 166.654 38.984 166.782 39.144C166.942 39.272 167.022 39.448 167.022 39.672V39.864C166.702 40.696 166.51 41.432 166.446 42.072C166.382 42.712 166.35 43.48 166.35 44.376C166.35 44.824 166.366 45.32 166.398 45.864C166.462 46.376 166.542 46.872 166.638 47.352C166.766 47.8 166.942 48.184 167.166 48.504C167.39 48.792 167.678 48.936 168.03 48.936C168.414 48.936 168.75 48.744 169.038 48.36C169.358 47.976 169.614 47.544 169.806 47.064C170.03 46.552 170.206 46.04 170.334 45.528C170.494 45.016 170.59 44.632 170.622 44.376C170.686 43.992 170.846 43.8 171.102 43.8C171.262 43.8 171.406 43.896 171.534 44.088C171.694 44.248 171.774 44.552 171.774 45C171.774 45.128 171.774 45.256 171.774 45.384C171.774 45.48 171.758 45.608 171.726 45.768ZM162.846 37.992C162.846 37.64 162.814 37.224 162.75 36.744C162.686 36.264 162.574 35.816 162.414 35.4C162.254 34.984 162.014 34.632 161.694 34.344C161.374 34.056 160.942 33.912 160.398 33.912C159.502 33.912 158.766 34.328 158.19 35.16C157.646 35.96 157.214 36.92 156.894 38.04C156.574 39.128 156.366 40.264 156.27 41.448C156.174 42.6 156.126 43.512 156.126 44.184C156.126 44.696 156.142 45.32 156.174 46.056C156.238 46.76 156.334 47.432 156.462 48.072C156.59 48.712 156.766 49.256 156.99 49.704C157.246 50.152 157.566 50.376 157.95 50.376C158.878 50.376 159.582 50.024 160.062 49.32C160.574 48.584 160.958 47.688 161.214 46.632C161.47 45.544 161.646 44.392 161.742 43.176C161.87 41.928 161.982 40.792 162.078 39.768C162.142 39.224 162.286 38.888 162.51 38.76C162.734 38.6 162.846 38.488 162.846 38.424V37.992ZM200.831 27.048C200.831 27.368 200.767 27.624 200.639 27.816C200.511 28.008 200.351 28.152 200.159 28.248C199.967 28.344 199.775 28.408 199.583 28.44C199.391 28.472 199.231 28.488 199.103 28.488C198.591 28.488 198.207 28.232 197.951 27.72C197.727 27.176 197.439 26.6 197.087 25.992C196.767 25.352 196.271 24.776 195.599 24.264C194.959 23.72 193.951 23.448 192.575 23.448C191.743 23.448 191.007 23.624 190.367 23.976C189.727 24.328 189.183 24.776 188.735 25.32C188.319 25.864 187.999 26.472 187.775 27.144C187.583 27.784 187.487 28.424 187.487 29.064C187.487 30.088 187.663 31.032 188.015 31.896C188.399 32.728 188.927 33.528 189.599 34.296C190.271 35.032 191.071 35.768 191.999 36.504C192.927 37.208 193.935 37.96 195.023 38.76C195.951 39.432 196.847 40.12 197.711 40.824C198.607 41.528 199.391 42.28 200.063 43.08C200.767 43.88 201.327 44.744 201.743 45.672C202.159 46.568 202.367 47.544 202.367 48.6C202.367 49.784 202.031 50.76 201.359 51.528C200.719 52.296 199.903 52.904 198.911 53.352C197.919 53.832 196.815 54.152 195.599 54.312C194.415 54.504 193.263 54.6 192.143 54.6C191.023 54.6 189.839 54.504 188.591 54.312C187.343 54.12 186.191 53.784 185.135 53.304C184.079 52.856 183.199 52.264 182.495 51.528C181.823 50.824 181.487 49.944 181.487 48.888C181.487 47.928 181.807 47.176 182.447 46.632C183.119 46.088 184.079 45.688 185.327 45.432C185.263 45.624 185.119 45.96 184.895 46.44C184.703 46.888 184.607 47.512 184.607 48.312C184.607 49.208 184.895 49.928 185.471 50.472C186.047 51.016 186.735 51.432 187.535 51.72C188.335 52.008 189.151 52.184 189.983 52.248C190.847 52.344 191.551 52.392 192.095 52.392C192.447 52.392 192.927 52.328 193.535 52.2C194.175 52.072 194.799 51.88 195.407 51.624C196.015 51.368 196.527 51.032 196.943 50.616C197.391 50.168 197.615 49.64 197.615 49.032C197.615 48.552 197.455 48.056 197.135 47.544C196.847 47 196.447 46.456 195.935 45.912C195.423 45.336 194.831 44.76 194.159 44.184C193.487 43.608 192.767 43.032 191.999 42.456C190.879 41.592 189.775 40.712 188.687 39.816C187.599 38.92 186.623 37.992 185.759 37.032C184.895 36.072 184.191 35.08 183.647 34.056C183.103 33 182.831 31.896 182.831 30.744C182.831 28.984 183.151 27.496 183.791 26.28C184.463 25.032 185.311 24.024 186.335 23.256C187.391 22.488 188.543 21.928 189.791 21.576C191.039 21.224 192.255 21.048 193.439 21.048C194.335 21.048 195.263 21.128 196.223 21.288C197.215 21.416 198.111 21.624 198.911 21.912C199.743 22.168 200.415 22.52 200.927 22.968C201.471 23.384 201.743 23.88 201.743 24.456C201.743 24.904 201.583 25.336 201.263 25.752C200.975 26.136 200.831 26.568 200.831 27.048ZM205.351 42.312C205.383 40.68 205.431 39.016 205.495 37.32C205.559 35.624 205.623 34.056 205.687 32.616C205.687 32.36 205.431 32.184 204.919 32.088C204.407 31.992 203.831 31.896 203.191 31.8C202.551 31.704 201.975 31.56 201.463 31.368C200.951 31.144 200.695 30.792 200.695 30.312C200.695 29.896 201.111 29.656 201.943 29.592C202.775 29.528 204.007 29.496 205.639 29.496C205.767 29.496 205.847 29.304 205.879 28.92C205.943 28.536 205.975 28.056 205.975 27.48C206.007 26.872 206.023 26.232 206.023 25.56C206.055 24.888 206.087 24.264 206.119 23.688C206.151 23.08 206.199 22.584 206.263 22.2C206.359 21.816 206.471 21.624 206.599 21.624C206.759 21.624 207.047 21.656 207.463 21.72C207.879 21.784 208.311 21.88 208.759 22.008C209.207 22.104 209.591 22.232 209.911 22.392C210.263 22.552 210.439 22.728 210.439 22.92L209.911 29.16C209.911 29.352 210.071 29.496 210.391 29.592C210.743 29.656 211.175 29.704 211.687 29.736C212.231 29.736 212.791 29.736 213.367 29.736C213.975 29.736 214.535 29.784 215.047 29.88C215.591 29.976 216.023 30.136 216.343 30.36C216.695 30.552 216.871 30.856 216.871 31.272C216.871 31.336 216.839 31.448 216.775 31.608C216.711 31.736 216.631 31.8 216.535 31.8C216.471 31.8 216.375 31.752 216.247 31.656C216.151 31.56 215.863 31.512 215.383 31.512C215.255 31.512 214.903 31.528 214.327 31.56C213.751 31.592 213.143 31.64 212.503 31.704C211.863 31.768 211.271 31.848 210.727 31.944C210.215 32.008 209.927 32.104 209.863 32.232C209.831 32.296 209.783 32.68 209.719 33.384C209.687 34.056 209.639 34.952 209.575 36.072C209.543 37.192 209.511 38.488 209.479 39.96C209.447 41.4 209.431 42.92 209.431 44.52C209.431 45.128 209.463 45.72 209.527 46.296C209.591 46.872 209.687 47.4 209.815 47.88C209.943 48.328 210.103 48.696 210.295 48.984C210.519 49.272 210.775 49.416 211.063 49.416C211.479 49.416 211.863 49.24 212.215 48.888C212.567 48.536 212.887 48.056 213.175 47.448C213.463 46.84 213.719 46.152 213.943 45.384C214.167 44.616 214.359 43.832 214.519 43.032C214.615 42.552 214.727 42.216 214.855 42.024C214.983 41.8 215.175 41.688 215.431 41.688C215.655 41.688 215.847 41.768 216.007 41.928C216.199 42.056 216.295 42.376 216.295 42.888C216.295 43.208 216.279 43.416 216.247 43.512C216.151 44.088 215.959 44.888 215.671 45.912C215.415 46.904 215.047 47.896 214.567 48.888C214.119 49.848 213.559 50.696 212.887 51.432C212.215 52.168 211.431 52.536 210.535 52.536C209.671 52.536 208.919 52.28 208.279 51.768C207.639 51.288 207.095 50.616 206.647 49.752C206.231 48.856 205.911 47.816 205.687 46.632C205.463 45.416 205.351 44.12 205.351 42.744V42.312ZM230.859 37.272C230.987 37.048 231.211 36.936 231.531 36.936C231.691 36.936 231.803 37.032 231.867 37.224C231.931 37.416 231.963 37.576 231.963 37.704C231.931 38.696 231.707 39.592 231.291 40.392C230.907 41.16 230.491 41.832 230.043 42.408C229.787 42.76 229.499 43.08 229.179 43.368C228.891 43.656 228.587 43.928 228.267 44.184C228.235 44.728 228.203 45.112 228.171 45.336C228.171 45.528 228.155 45.688 228.123 45.816C228.059 46.296 227.899 46.904 227.643 47.64C227.387 48.376 227.019 49.096 226.539 49.8C226.091 50.504 225.531 51.096 224.859 51.576C224.219 52.088 223.467 52.344 222.603 52.344C222.315 52.344 221.979 52.312 221.595 52.248C221.243 52.184 220.875 52.088 220.491 51.96C220.107 51.864 219.739 51.736 219.387 51.576C219.035 51.448 218.731 51.304 218.475 51.144C217.675 50.696 217.019 50.168 216.507 49.56C215.995 48.952 215.595 48.312 215.307 47.64C215.051 46.936 214.875 46.232 214.779 45.528C214.683 44.792 214.635 44.088 214.635 43.416C214.635 42.264 214.747 41.096 214.971 39.912C215.227 38.728 215.531 37.592 215.883 36.504C216.235 35.416 216.635 34.44 217.083 33.576C217.531 32.712 217.963 32.04 218.379 31.56C218.795 31.112 219.259 30.808 219.771 30.648C220.283 30.456 220.747 30.36 221.163 30.36C221.675 30.36 222.187 30.488 222.699 30.744C223.211 31 223.707 31.32 224.187 31.704C224.667 32.088 225.131 32.536 225.579 33.048C226.059 33.528 226.507 34.008 226.923 34.488C227.243 34.84 227.483 35.416 227.643 36.216C227.803 36.984 227.931 37.768 228.027 38.568C228.091 39.016 228.139 39.496 228.171 40.008C228.203 40.52 228.219 41.048 228.219 41.592C228.699 41.208 229.083 40.808 229.371 40.392C229.659 39.944 229.883 39.528 230.043 39.144C230.235 38.76 230.379 38.408 230.475 38.088C230.603 37.736 230.731 37.464 230.859 37.272ZM225.435 41.4C225.435 41.272 225.419 40.984 225.387 40.536C225.387 40.088 225.355 39.56 225.291 38.952C225.259 38.344 225.179 37.72 225.051 37.08C224.955 36.408 224.795 35.8 224.571 35.256C224.379 34.712 224.123 34.264 223.803 33.912C223.483 33.528 223.083 33.336 222.603 33.336C222.123 33.336 221.659 33.528 221.211 33.912C220.763 34.296 220.363 34.792 220.011 35.4C219.659 36.008 219.371 36.696 219.147 37.464C218.955 38.232 218.859 38.984 218.859 39.72C218.859 41 219.115 41.944 219.627 42.552C220.139 43.128 221.019 43.416 222.267 43.416C223.195 43.416 223.947 43.272 224.523 42.984C225.131 42.696 225.435 42.472 225.435 42.312V41.4ZM225.195 45.336C224.811 45.592 224.283 45.784 223.611 45.912C222.939 46.04 222.379 46.104 221.931 46.104C221.067 46.104 220.395 46.04 219.915 45.912C219.467 45.784 218.971 45.528 218.427 45.144L218.379 46.152C218.379 46.504 218.427 46.872 218.523 47.256C218.619 47.64 218.763 47.992 218.955 48.312C219.179 48.632 219.483 48.904 219.867 49.128C220.251 49.32 220.731 49.416 221.307 49.416C222.011 49.416 222.603 49.288 223.083 49.032C223.595 48.744 223.995 48.392 224.283 47.976C224.603 47.56 224.827 47.112 224.955 46.632C225.115 46.152 225.195 45.72 225.195 45.336ZM244.066 44.232C244.066 44.456 243.986 45 243.826 45.864C243.698 46.696 243.442 47.592 243.058 48.552C242.706 49.48 242.21 50.312 241.57 51.048C240.962 51.784 240.178 52.152 239.218 52.152C238.194 52.152 237.378 51.784 236.77 51.048C236.162 50.344 235.698 49.496 235.378 48.504C235.058 47.48 234.85 46.424 234.754 45.336C234.658 44.216 234.61 43.288 234.61 42.552C234.61 41.72 234.658 40.888 234.754 40.056C234.85 39.192 234.914 38.344 234.946 37.512C234.946 37.256 234.818 37.096 234.562 37.032C234.306 36.968 234.066 36.936 233.842 36.936C233.458 36.936 233.218 36.984 233.122 37.08C233.026 37.176 232.962 37.288 232.93 37.416L232.738 38.952C232.61 39.976 232.466 40.968 232.306 41.928C232.178 42.856 232.018 43.688 231.826 44.424C231.666 45.128 231.458 45.704 231.202 46.152C230.978 46.568 230.706 46.776 230.386 46.776H230.338C230.21 46.776 230.082 46.744 229.954 46.68C229.858 46.616 229.81 46.456 229.81 46.2C229.81 46.072 229.842 45.88 229.906 45.624C230.162 44.504 230.322 43.576 230.386 42.84C230.45 42.104 230.498 41.448 230.53 40.872V40.536C230.53 40.376 230.53 40.184 230.53 39.96C230.562 39.736 230.578 39.464 230.578 39.144V37.896C230.578 37.544 230.578 37.176 230.578 36.792C230.578 36.408 230.546 35.992 230.482 35.544L230.338 32.712C230.338 32.52 230.418 32.344 230.578 32.184C230.738 32.024 230.946 31.88 231.202 31.752C231.458 31.624 231.73 31.528 232.018 31.464C232.306 31.4 232.562 31.368 232.786 31.368C233.33 31.368 233.602 31.72 233.602 32.424V32.664L233.554 33.72V34.008C233.554 34.232 233.602 34.376 233.698 34.44C233.794 34.472 233.986 34.52 234.274 34.584H234.418C234.674 34.616 235.09 34.648 235.666 34.68C236.242 34.712 236.818 34.776 237.394 34.872C237.97 34.968 238.466 35.128 238.882 35.352C239.33 35.544 239.554 35.832 239.554 36.216C239.554 36.344 239.522 36.536 239.458 36.792C239.394 37.016 239.314 37.256 239.218 37.512C239.122 37.736 239.042 37.944 238.978 38.136C238.914 38.328 238.882 38.456 238.882 38.52C238.306 40.728 238.018 43.032 238.018 45.432C238.018 45.624 238.034 45.976 238.066 46.488C238.098 47 238.162 47.528 238.258 48.072C238.354 48.616 238.498 49.096 238.69 49.512C238.882 49.928 239.122 50.136 239.41 50.136C239.89 50.136 240.322 49.848 240.706 49.272C241.09 48.664 241.426 47.976 241.714 47.208C242.002 46.408 242.226 45.608 242.386 44.808C242.578 44.008 242.706 43.416 242.77 43.032C242.834 42.68 242.93 42.472 243.058 42.408C243.218 42.312 243.362 42.264 243.49 42.264C243.938 42.264 244.162 42.552 244.162 43.128C244.162 43.192 244.146 43.368 244.114 43.656C244.114 43.912 244.098 44.104 244.066 44.232ZM256.927 43.608C256.927 44.408 256.783 45.304 256.495 46.296C256.207 47.288 255.759 48.216 255.151 49.08C254.543 49.912 253.759 50.616 252.799 51.192C251.871 51.768 250.751 52.056 249.439 52.056C248.191 52.056 247.135 51.832 246.271 51.384C245.407 50.936 244.687 50.328 244.111 49.56C243.567 48.792 243.167 47.896 242.911 46.872C242.687 45.816 242.575 44.712 242.575 43.56C242.575 42.44 242.703 41.208 242.959 39.864C243.215 38.52 243.615 37.272 244.159 36.12C244.703 34.936 245.391 33.96 246.223 33.192C247.055 32.392 248.063 31.992 249.247 31.992C249.823 31.992 250.367 32.12 250.879 32.376C251.391 32.6 251.839 32.904 252.223 33.288C252.607 33.672 252.911 34.12 253.135 34.632C253.359 35.144 253.487 35.672 253.519 36.216L253.567 36.888C253.567 37.656 253.439 38.504 253.183 39.432C252.927 40.328 252.559 41.176 252.079 41.976C251.599 42.744 251.007 43.4 250.303 43.944C249.599 44.456 248.799 44.712 247.903 44.712C247.743 44.712 247.535 44.696 247.279 44.664C247.055 44.632 246.831 44.584 246.607 44.52V45.912C246.607 46.136 246.671 46.456 246.799 46.872C246.959 47.288 247.183 47.704 247.471 48.12C247.759 48.504 248.127 48.856 248.575 49.176C249.055 49.464 249.631 49.608 250.303 49.608C251.231 49.608 251.983 49.432 252.559 49.08C253.167 48.696 253.663 48.216 254.047 47.64C254.431 47.064 254.719 46.424 254.911 45.72C255.135 44.984 255.311 44.28 255.439 43.608C255.535 43.16 255.631 42.856 255.727 42.696C255.823 42.536 255.983 42.456 256.207 42.456C256.687 42.456 256.927 42.728 256.927 43.272V43.608ZM251.263 36.168C251.263 35.912 251.183 35.64 251.023 35.352C250.895 35.064 250.639 34.92 250.255 34.92C249.679 34.92 249.183 35.224 248.767 35.832C248.351 36.44 247.999 37.144 247.711 37.944C247.455 38.712 247.263 39.464 247.135 40.2C247.007 40.904 246.943 41.368 246.943 41.592V41.736C246.943 42.024 246.959 42.264 246.991 42.456C247.055 42.616 247.231 42.696 247.519 42.696H247.759C248.399 42.696 248.943 42.456 249.391 41.976C249.839 41.496 250.191 40.92 250.447 40.248C250.735 39.576 250.943 38.888 251.071 38.184C251.199 37.48 251.263 36.904 251.263 36.456V36.168Z" fill="white"/>
<defs>
<clipPath id="clip0">
<rect width="80" height="71" fill="white"/>
</clipPath>
</defs>
</svg>
